<svg version="1.1" id="Layer_1" xmlns="http://www.w3.org/2000/svg" xmlns:xlink="http://www.w3.org/1999/xlink" x="0px" y="0px"
	 width="100%" viewBox="0 0 300 240" enable-background="new 0 0 300 240" xml:space="preserve">
<path fill="#0D0D0D" opacity="1.000000" stroke="none" 
	d="
M182.000000,241.000000 
	C121.333344,241.000000 61.166679,241.000000 1.000016,241.000000 
	C1.000011,161.000015 1.000011,81.000031 1.000005,1.000038 
	C100.999969,1.000025 200.999939,1.000025 300.999939,1.000013 
	C300.999939,80.999962 300.999939,160.999924 300.999969,240.999939 
	C261.500000,241.000000 222.000000,241.000000 182.000000,241.000000 
M99.984367,116.881645 
	C99.966148,114.216713 100.139671,111.533760 99.891228,108.890465 
	C99.309486,102.701134 95.008224,100.257271 89.313301,102.633652 
	C88.420815,103.006065 87.109535,103.386688 86.395889,103.006065 
	C82.707199,101.038704 79.352951,100.860817 76.656227,104.460396 
	C74.346901,107.542877 74.379074,116.871292 76.549950,119.364052 
	C76.648720,119.477470 77.147781,119.242287 78.041054,119.034225 
	C78.041054,116.553787 78.048393,113.936424 78.039093,111.319107 
	C78.028725,108.400352 77.959129,105.123421 81.905212,105.021835 
	C86.342522,104.907593 85.944763,108.516205 86.001465,111.515640 
	C86.039238,113.514030 85.875992,115.531166 86.109535,117.503578 
	C86.203407,118.296432 87.118187,118.992088 87.659355,119.731987 
	C88.120537,119.589058 88.581726,119.446129 89.042915,119.303207 
	C89.042915,117.726341 88.855087,116.122017 89.080864,114.578171 
	C89.598099,111.041382 87.036224,105.197060 93.119354,105.204201 
	C98.906937,105.210999 96.385735,110.908257 96.941559,114.314369 
	C97.127190,115.451927 96.693047,116.749207 97.064926,117.785980 
	C97.922157,120.175880 99.036369,120.103340 99.984367,116.881645 
M161.629089,114.840057 
	C163.688492,118.611679 166.940765,120.659676 171.081085,119.592789 
	C173.479004,118.974899 175.490631,116.857925 177.676102,115.415581 
	C177.382309,114.919098 177.088516,114.422607 176.794708,113.926125 
	C172.887375,114.373177 168.409134,120.295372 164.618271,112.348557 
	C169.491364,112.348557 173.700775,112.348557 177.854218,112.348557 
	C178.717941,107.774315 177.521149,104.218613 173.945969,102.993332 
	C171.140686,102.031906 167.226257,101.991875 164.632309,103.249611 
	C160.310944,105.344940 160.189529,109.836517 161.629089,114.840057 
M198.370468,112.700447 
	C198.328354,111.707092 198.362854,110.703468 198.231491,109.722061 
	C197.466812,104.009590 193.328125,100.906151 187.762924,101.831383 
	C182.827911,102.651848 179.892670,107.310814 180.914810,112.701096 
	C181.858414,117.677307 186.664444,120.638718 191.773407,119.538597 
	C193.573929,119.150887 195.455460,119.139389 197.959930,118.890556 
	C198.079956,117.331932 198.226196,115.433083 198.370468,112.700447 
M122.874023,115.791512 
	C123.311279,117.096024 123.748543,118.400536 124.185799,119.705040 
	C124.730621,119.569481 125.275436,119.433929 125.820251,119.298370 
	C125.820251,115.374077 126.193489,111.403328 125.712601,107.538879 
	C125.254959,103.861191 122.683937,101.697083 118.797348,101.597610 
	C114.710625,101.493019 111.872932,103.555717 111.338722,107.483978 
	C110.814522,111.338646 111.224503,115.320358 111.224503,119.246315 
	C111.622787,119.409569 112.021072,119.572823 112.419357,119.736084 
	C112.974785,118.899979 113.897713,118.110352 114.010513,117.218285 
	C114.259270,115.251099 114.110924,113.232239 114.104034,111.234528 
	C114.093010,108.040474 114.405045,104.824089 118.587715,104.908508 
	C122.784706,104.993217 122.845360,108.333870 122.866333,111.444046 
	C122.874191,112.609406 122.869049,113.774841 122.874023,115.791512 
M207.184479,115.639793 
	C206.404556,113.587494 204.781586,111.442657 204.994888,109.499374 
	C205.794800,102.211769 212.320709,106.352074 216.475769,105.037254 
	C212.280609,100.848808 207.235077,100.715553 203.836288,104.165726 
	C200.371826,107.682533 200.392761,113.624802 203.882202,117.190987 
	C207.456589,120.844002 211.931686,120.737106 216.716278,116.027748 
	C213.214554,116.027748 210.572540,116.027748 207.184479,115.639793 
M222.290558,118.181213 
	C224.339905,118.542076 226.389252,118.902939 228.438583,119.263794 
	C228.788818,118.677559 229.139053,118.091316 229.489288,117.505081 
	C222.029160,115.907028 221.511261,111.160667 222.522446,106.052437 
	C224.900452,105.077553 226.717270,104.332741 228.534073,103.587921 
	C226.800751,102.762146 225.067444,101.936363 222.623962,100.772255 
	C222.337845,100.207382 221.595291,98.741348 220.852722,97.275314 
	C220.380814,97.395515 219.908890,97.515709 219.436966,97.635910 
	C219.394119,104.401100 217.151245,111.317589 222.290558,118.181213 
M150.183304,106.944923 
	C150.049347,109.906326 149.755188,112.873344 149.858612,115.826431 
	C149.901245,117.043297 150.798645,118.230225 151.307281,119.430771 
	C151.863602,118.291023 152.927170,117.134499 152.890121,116.014366 
	C152.711502,110.614738 152.472275,105.349525 159.323120,103.642952 
	C159.414841,103.620102 159.369293,103.046181 159.417297,102.225830 
	C155.305481,101.071785 152.267410,102.073959 150.183304,106.944923 
M188.206055,144.612686 
	C188.206055,142.834656 188.206055,141.056641 188.206055,139.102859 
	C186.381027,141.486908 185.071487,143.197586 183.761932,144.908249 
	C182.201965,143.162308 180.641998,141.416351 179.341354,139.960648 
	C179.341354,143.171112 179.341354,147.002533 179.341354,150.463211 
	C180.765427,149.168655 182.246552,146.891907 183.305161,147.073822 
	C184.971191,147.360107 186.352875,149.301132 188.205063,150.830704 
	C188.205063,148.975342 188.205063,147.191895 188.206055,144.612686 
M211.962250,149.834930 
	C212.528198,149.891479 213.094162,149.948044 213.660095,150.004593 
	C213.583603,147.071686 213.783707,144.091125 213.290726,141.229980 
	C213.100876,140.128052 211.339981,138.541626 210.285355,138.534256 
	C208.954361,138.524918 206.599091,139.757523 206.461044,140.711334 
	C205.983704,144.009399 206.277100,147.419022 206.277100,150.786179 
	C206.595367,150.787033 206.913651,150.787903 207.231918,150.788773 
	C207.672852,149.271530 208.113770,147.754272 208.956207,144.855408 
	C210.362991,146.906128 211.132523,148.027893 211.962250,149.834930 
M111.402687,151.106598 
	C115.010071,148.793091 116.174072,145.599686 114.134705,141.797668 
	C112.478745,138.710434 109.623901,137.396988 106.174393,138.636124 
	C102.354683,140.008224 100.640160,142.972015 101.805038,146.850815 
	C103.099968,151.162643 106.266281,152.746338 111.402687,151.106598 
M140.848618,139.499664 
	C138.012299,143.174515 139.012970,147.058868 139.573303,150.718369 
	C141.341019,149.694580 142.743256,148.222946 144.061783,148.294479 
	C145.537064,148.374512 146.936447,149.853058 148.831528,151.003998 
	C148.831528,148.268402 149.037308,145.790588 148.786240,143.359985 
	C148.341644,139.055771 146.114761,137.825424 140.848618,139.499664 
M156.221817,149.332428 
	C156.244308,147.837738 155.906448,146.214844 156.381027,144.881012 
	C156.967056,143.233948 158.228455,141.827194 159.198013,140.316589 
	C160.142792,141.805038 161.447021,143.184570 161.939468,144.810059 
	C162.527390,146.750626 162.420242,148.901764 162.614182,150.961685 
	C163.059189,150.915405 163.504196,150.869125 163.949203,150.822830 
	C163.949203,148.041656 164.323807,145.187546 163.802032,142.507980 
	C163.511154,141.014221 161.965744,139.249496 160.545639,138.650955 
	C159.371170,138.155945 156.340408,138.956314 156.216690,139.589828 
	C155.501068,143.254227 155.403702,147.039383 155.097076,150.783661 
	C155.438873,150.518494 155.780670,150.253311 156.221817,149.332428 
M82.524864,140.354477 
	C83.435806,140.892960 84.346748,141.431442 85.257690,141.969925 
	C85.498772,141.431625 85.739845,140.893326 85.980927,140.355026 
	C84.019417,139.715744 82.007530,138.487061 80.114502,138.648880 
	C78.896889,138.752960 76.770775,141.144821 76.980438,142.077911 
	C77.315681,143.569824 79.223763,144.732727 80.523582,145.975479 
	C81.504639,146.913467 82.574257,147.758820 83.604462,148.645401 
	C82.151001,148.882812 80.703407,149.225113 79.241249,149.306793 
	C78.643921,149.340164 78.015068,148.809235 77.400558,148.535049 
	C77.227554,149.113205 77.054558,149.691345 76.881554,150.269501 
	C78.962959,150.694366 81.105614,151.602371 83.101112,151.349426 
	C84.170845,151.213821 86.019699,148.416382 85.731956,147.969528 
	C84.716461,146.392487 82.940857,145.298615 81.430801,144.048950 
	C80.643585,143.397491 79.808907,142.803375 78.995667,142.183365 
	C79.949776,141.533981 80.903885,140.884583 82.524864,140.354477 
M133.146301,117.438919 
	C133.141174,112.964188 133.200562,108.487457 133.061417,104.016899 
	C133.040527,103.345924 132.090561,102.703857 131.570374,102.048424 
	C131.060425,102.717491 130.129135,103.374054 130.108841,104.057655 
	C129.976120,108.529068 129.892593,113.013138 130.097488,117.479095 
	C130.215408,120.049698 131.538635,120.047272 133.146301,117.438919 
M107.018158,115.105301 
	C107.015549,111.648430 107.105766,108.187302 106.947685,104.737549 
	C106.906097,103.830002 106.096252,102.957664 105.639198,102.069153 
	C105.058563,103.004547 104.026779,103.916573 103.976898,104.879463 
	C103.781288,108.655479 103.791122,112.452225 103.960930,116.230652 
	C104.008949,117.299141 104.860863,118.331497 105.344101,119.380417 
	C105.901825,118.251854 106.459557,117.123291 107.018158,115.105301 
M128.689621,140.326065 
	C129.295944,140.401016 129.902267,140.475967 131.470993,140.669891 
	C128.268387,137.325531 125.085007,137.447739 123.151016,139.721329 
	C121.514214,141.645538 120.502693,145.035522 120.889130,147.515930 
	C121.398354,150.784485 124.427841,152.037781 127.151367,151.941116 
	C125.371559,149.236893 123.222076,146.939102 122.484955,144.253647 
	C122.267349,143.460907 126.039185,141.573120 128.689621,140.326065 
M196.211975,139.820450 
	C193.444595,142.451324 192.830490,145.593338 194.943390,148.705368 
	C195.914276,150.135406 197.937851,150.850739 199.484055,151.890167 
	C199.719193,151.543686 199.954330,151.197205 200.189468,150.850708 
	C199.025177,149.858459 197.860886,148.866196 196.609421,147.799652 
	C197.794113,147.015564 198.638153,146.456940 199.736557,145.729965 
	C191.494186,142.445068 200.395004,141.050278 200.177444,138.254883 
	C198.791443,138.722900 197.766281,139.069061 196.211975,139.820450 
M223.931946,146.567688 
	C223.024109,145.616608 222.116287,144.665512 221.208466,143.714417 
	C220.778229,143.300873 220.347992,142.887329 219.917755,142.473770 
	C221.691971,141.312576 223.466202,140.151382 226.279694,138.309982 
	C220.556732,138.988647 218.643661,141.528229 218.834137,145.725388 
	C218.999634,149.372757 221.194794,151.138428 225.090714,151.093979 
	C222.086472,148.552765 222.086472,148.552765 223.931946,146.567688 
M96.235321,151.214737 
	C91.276917,148.372437 94.518257,142.744110 91.833878,138.956177 
	C91.262405,142.054459 91.300735,145.116806 91.251740,148.177765 
	C91.201714,151.302261 92.682449,152.385849 96.235321,151.214737 
M98.158073,121.289688 
	C97.989372,121.540688 97.792252,121.778679 97.668129,122.050072 
	C97.627296,122.139366 97.775024,122.434143 97.837151,122.434334 
	C103.702415,122.452515 109.567741,122.451256 115.433067,122.451256 
	C115.428291,122.005959 115.423515,121.560654 115.418747,121.115356 
	C109.884811,121.115356 104.350868,121.115356 98.158073,121.289688 
M145.501450,111.258980 
	C142.873779,107.497978 140.104324,109.424446 137.363739,110.192894 
	C137.334259,110.740768 137.304779,111.288643 137.275299,111.836517 
	C139.868866,111.836517 142.462433,111.836517 145.501450,111.258980 
M131.819839,122.977867 
	C132.717224,122.710251 133.614609,122.442627 134.511993,122.175011 
	C134.445831,121.948212 134.379684,121.721420 134.313522,121.494621 
	C130.738983,121.494621 127.164452,121.494621 123.589920,121.494621 
	C123.576828,121.991631 123.563744,122.488647 123.550652,122.985657 
	C126.044487,122.985657 128.538315,122.985657 131.819839,122.977867 
M132.295135,147.869263 
	C131.887253,148.314087 131.479385,148.758911 130.352509,149.987900 
	C131.496933,149.020065 131.875946,148.768616 132.157883,148.435104 
	C132.325546,148.236740 132.340500,147.909271 132.295135,147.869263 
z"/>
<path fill="#B17575" opacity="1.000000" stroke="none" 
	d="
M99.970749,117.304771 
	C99.036369,120.103340 97.922157,120.175880 97.064926,117.785980 
	C96.693047,116.749207 97.127190,115.451927 96.941559,114.314369 
	C96.385735,110.908257 98.906937,105.210999 93.119354,105.204201 
	C87.036224,105.197060 89.598099,111.041382 89.080864,114.578171 
	C88.855087,116.122017 89.042915,117.726341 89.042915,119.303207 
	C88.581726,119.446129 88.120537,119.589058 87.659355,119.731987 
	C87.118187,118.992088 86.203407,118.296432 86.109535,117.503578 
	C85.875992,115.531166 86.039238,113.514030 86.001465,111.515640 
	C85.944763,108.516205 86.342522,104.907593 81.905212,105.021835 
	C77.959129,105.123421 78.028725,108.400352 78.039093,111.319107 
	C78.048393,113.936424 78.041054,116.553787 78.041054,119.034225 
	C77.147781,119.242287 76.648720,119.477470 76.549950,119.364052 
	C74.379074,116.871292 74.346901,107.542877 76.656227,104.460396 
	C79.352951,100.860817 82.707199,101.038704 86.395889,103.006065 
	C87.109535,103.386688 88.420815,103.006065 89.313301,102.633652 
	C95.008224,100.257271 99.309486,102.701134 99.891228,108.890465 
	C100.139671,111.533760 99.966148,114.216713 99.970749,117.304771 
z"/>
<path fill="#B57777" opacity="1.000000" stroke="none" 
	d="
M161.455139,114.513527 
	C160.189529,109.836517 160.310944,105.344940 164.632309,103.249611 
	C167.226257,101.991875 171.140686,102.031906 173.945969,102.993332 
	C177.521149,104.218613 178.717941,107.774315 177.854218,112.348557 
	C173.700775,112.348557 169.491364,112.348557 164.618271,112.348557 
	C168.409134,120.295372 172.887375,114.373177 176.794708,113.926125 
	C177.088516,114.422607 177.382309,114.919098 177.676102,115.415581 
	C175.490631,116.857925 173.479004,118.974899 171.081085,119.592789 
	C166.940765,120.659676 163.688492,118.611679 161.455139,114.513527 
M170.982605,104.799736 
	C167.693436,104.323517 165.342163,105.341820 164.171799,109.044540 
	C167.937347,109.044540 171.317352,109.044540 176.031769,109.044540 
	C173.936127,107.085587 172.805313,106.028542 170.982605,104.799736 
z"/>
<path fill="#B47777" opacity="1.000000" stroke="none" 
	d="
M198.371460,113.117340 
	C198.226196,115.433083 198.079956,117.331932 197.959930,118.890556 
	C195.455460,119.139389 193.573929,119.150887 191.773407,119.538597 
	C186.664444,120.638718 181.858414,117.677307 180.914810,112.701096 
	C179.892670,107.310814 182.827911,102.651848 187.762924,101.831383 
	C193.328125,100.906151 197.466812,104.009590 198.231491,109.722061 
	C198.362854,110.703468 198.328354,111.707092 198.371460,113.117340 
M194.106171,114.302414 
	C194.431381,113.049309 195.052597,111.789948 195.026245,110.544281 
	C194.947449,106.820580 193.036514,104.531601 189.146988,104.836708 
	C185.259293,105.141678 183.750641,107.803680 184.087189,111.409393 
	C184.540512,116.266235 188.726807,117.748253 194.106171,114.302414 
z"/>
<path fill="#B47777" opacity="1.000000" stroke="none" 
	d="
M122.871933,115.365875 
	C122.869049,113.774841 122.874191,112.609406 122.866333,111.444046 
	C122.845360,108.333870 122.784706,104.993217 118.587715,104.908508 
	C114.405045,104.824089 114.093010,108.040474 114.104034,111.234528 
	C114.110924,113.232239 114.259270,115.251099 114.010513,117.218285 
	C113.897713,118.110352 112.974785,118.899979 112.419357,119.736084 
	C112.021072,119.572823 111.622787,119.409569 111.224503,119.246315 
	C111.224503,115.320358 110.814522,111.338646 111.338722,107.483978 
	C111.872932,103.555717 114.710625,101.493019 118.797348,101.597610 
	C122.683937,101.697083 125.254959,103.861191 125.712601,107.538879 
	C126.193489,111.403328 125.820251,115.374077 125.820251,119.298370 
	C125.275436,119.433929 124.730621,119.569481 124.185799,119.705040 
	C123.748543,118.400536 123.311279,117.096024 122.871933,115.365875 
z"/>
<path fill="#AF7474" opacity="1.000000" stroke="none" 
	d="
M207.557495,115.833771 
	C210.572540,116.027748 213.214554,116.027748 216.716278,116.027748 
	C211.931686,120.737106 207.456589,120.844002 203.882202,117.190987 
	C200.392761,113.624802 200.371826,107.682533 203.836288,104.165726 
	C207.235077,100.715553 212.280609,100.848808 216.475769,105.037254 
	C212.320709,106.352074 205.794800,102.211769 204.994888,109.499374 
	C204.781586,111.442657 206.404556,113.587494 207.557495,115.833771 
z"/>
<path fill="#B07474" opacity="1.000000" stroke="none" 
	d="
M221.970825,117.975800 
	C217.151245,111.317589 219.394119,104.401100 219.436966,97.635910 
	C219.908890,97.515709 220.380814,97.395515 220.852722,97.275314 
	C221.595291,98.741348 222.337845,100.207382 222.623962,100.772255 
	C225.067444,101.936363 226.800751,102.762146 228.534073,103.587921 
	C226.717270,104.332741 224.900452,105.077553 222.522446,106.052437 
	C221.511261,111.160667 222.029160,115.907028 229.489288,117.505081 
	C229.139053,118.091316 228.788818,118.677559 228.438583,119.263794 
	C226.389252,118.902939 224.339905,118.542076 221.970825,117.975800 
z"/>
<path fill="#B17575" opacity="1.000000" stroke="none" 
	d="
M150.314514,106.574097 
	C152.267410,102.073959 155.305481,101.071785 159.417297,102.225830 
	C159.369293,103.046181 159.414841,103.620102 159.323120,103.642952 
	C152.472275,105.349525 152.711502,110.614738 152.890121,116.014366 
	C152.927170,117.134499 151.863602,118.291023 151.307281,119.430771 
	C150.798645,118.230225 149.901245,117.043297 149.858612,115.826431 
	C149.755188,112.873344 150.049347,109.906326 150.314514,106.574097 
z"/>
<path fill="#943333" opacity="1.000000" stroke="none" 
	d="
M188.205566,145.010559 
	C188.205063,147.191895 188.205063,148.975342 188.205063,150.830704 
	C186.352875,149.301132 184.971191,147.360107 183.305161,147.073822 
	C182.246552,146.891907 180.765427,149.168655 179.341354,150.463211 
	C179.341354,147.002533 179.341354,143.171112 179.341354,139.960648 
	C180.641998,141.416351 182.201965,143.162308 183.761932,144.908264 
	C185.071487,143.197586 186.381027,141.486908 188.206055,139.102859 
	C188.206055,141.056641 188.206055,142.834656 188.205566,145.010559 
z"/>
<path fill="#8A3030" opacity="1.000000" stroke="none" 
	d="
M211.932159,149.492294 
	C211.132523,148.027893 210.362991,146.906128 208.956207,144.855408 
	C208.113770,147.754272 207.672852,149.271530 207.231918,150.788773 
	C206.913651,150.787903 206.595367,150.787033 206.277100,150.786179 
	C206.277100,147.419022 205.983704,144.009399 206.461044,140.711334 
	C206.599091,139.757523 208.954361,138.524918 210.285355,138.534256 
	C211.339981,138.541626 213.100876,140.128052 213.290726,141.229980 
	C213.783707,144.091125 213.583603,147.071686 213.660095,150.004593 
	C213.094162,149.948044 212.528198,149.891479 211.932159,149.492294 
z"/>
<path fill="#8C3131" opacity="1.000000" stroke="none" 
	d="
M111.049271,151.267059 
	C106.266281,152.746338 103.099968,151.162643 101.805038,146.850815 
	C100.640160,142.972015 102.354683,140.008224 106.174393,138.636124 
	C109.623901,137.396988 112.478745,138.710434 114.134705,141.797668 
	C116.174072,145.599686 115.010071,148.793091 111.049271,151.267059 
M104.983749,141.412781 
	C104.541359,143.207748 103.380013,145.201950 103.810379,146.755081 
	C104.635864,149.734146 107.560043,151.043549 110.049507,149.425995 
	C111.618546,148.406494 113.028236,145.240295 112.617317,143.478363 
	C111.808853,140.011917 108.867683,139.245895 104.983749,141.412781 
z"/>
<path fill="#862F2F" opacity="1.000000" stroke="none" 
	d="
M141.156616,139.259369 
	C146.114761,137.825424 148.341644,139.055771 148.786240,143.359985 
	C149.037308,145.790588 148.831528,148.268402 148.831528,151.003998 
	C146.936447,149.853058 145.537064,148.374512 144.061783,148.294479 
	C142.743256,148.222946 141.341019,149.694580 139.573303,150.718369 
	C139.012970,147.058868 138.012299,143.174515 141.156616,139.259369 
M141.349792,142.217178 
	C141.883621,143.498672 142.108536,145.176590 143.061996,145.919586 
	C143.677734,146.399399 146.178711,145.788788 146.389160,145.172882 
	C146.782318,144.022202 146.571960,141.892853 145.780533,141.319565 
	C144.929474,140.703079 143.122452,141.406326 141.349792,142.217178 
z"/>
<path fill="#862F2F" opacity="1.000000" stroke="none" 
	d="
M156.172150,149.660278 
	C155.780670,150.253311 155.438873,150.518494 155.097076,150.783661 
	C155.403702,147.039383 155.501068,143.254227 156.216690,139.589828 
	C156.340408,138.956314 159.371170,138.155945 160.545639,138.650955 
	C161.965744,139.249496 163.511154,141.014221 163.802032,142.507980 
	C164.323807,145.187546 163.949203,148.041656 163.949203,150.822830 
	C163.504196,150.869125 163.059189,150.915405 162.614182,150.961685 
	C162.420242,148.901764 162.527390,146.750626 161.939468,144.810059 
	C161.447021,143.184570 160.142792,141.805038 159.198029,140.316589 
	C158.228455,141.827194 156.967056,143.233948 156.381027,144.881012 
	C155.906448,146.214844 156.244308,147.837738 156.172150,149.660278 
z"/>
<path fill="#8A3030" opacity="1.000000" stroke="none" 
	d="
M82.191429,140.294830 
	C80.903885,140.884583 79.949776,141.533981 78.995667,142.183365 
	C79.808907,142.803375 80.643585,143.397491 81.430801,144.048950 
	C82.940857,145.298615 84.716461,146.392487 85.731956,147.969528 
	C86.019699,148.416382 84.170845,151.213821 83.101112,151.349426 
	C81.105614,151.602371 78.962959,150.694366 76.881554,150.269501 
	C77.054558,149.691345 77.227554,149.113205 77.400558,148.535049 
	C78.015068,148.809235 78.643921,149.340164 79.241249,149.306793 
	C80.703407,149.225113 82.151001,148.882812 83.604462,148.645401 
	C82.574257,147.758820 81.504639,146.913467 80.523582,145.975479 
	C79.223763,144.732727 77.315681,143.569824 76.980438,142.077911 
	C76.770775,141.144821 78.896889,138.752960 80.114502,138.648880 
	C82.007530,138.487061 84.019417,139.715744 85.980927,140.355026 
	C85.739845,140.893326 85.498772,141.431625 85.257690,141.969925 
	C84.346748,141.431442 83.435806,140.892960 82.191429,140.294830 
z"/>
<path fill="#B57777" opacity="1.000000" stroke="none" 
	d="
M133.102615,117.836205 
	C131.538635,120.047272 130.215408,120.049698 130.097488,117.479095 
	C129.892593,113.013138 129.976120,108.529068 130.108841,104.057655 
	C130.129135,103.374054 131.060425,102.717491 131.570374,102.048416 
	C132.090561,102.703857 133.040527,103.345924 133.061417,104.016899 
	C133.200562,108.487457 133.141174,112.964188 133.102615,117.836205 
z"/>
<path fill="#BA7B7B" opacity="1.000000" stroke="none" 
	d="
M107.017715,115.550011 
	C106.459557,117.123291 105.901825,118.251854 105.344093,119.380417 
	C104.860863,118.331497 104.008949,117.299141 103.960930,116.230652 
	C103.791122,112.452225 103.781288,108.655479 103.976898,104.879463 
	C104.026779,103.916573 105.058563,103.004547 105.639198,102.069153 
	C106.096252,102.957664 106.906097,103.830002 106.947685,104.737549 
	C107.105766,108.187302 107.015549,111.648430 107.017715,115.550011 
z"/>
<path fill="#8A3030" opacity="1.000000" stroke="none" 
	d="
M128.336212,140.256607 
	C126.039185,141.573120 122.267349,143.460907 122.484955,144.253647 
	C123.222076,146.939102 125.371559,149.236893 127.151367,151.941116 
	C124.427841,152.037781 121.398354,150.784485 120.889130,147.515930 
	C120.502693,145.035522 121.514214,141.645538 123.151016,139.721329 
	C125.085007,137.447739 128.268387,137.325531 131.470993,140.669891 
	C129.902267,140.475967 129.295944,140.401016 128.336212,140.256607 
z"/>
<path fill="#883030" opacity="1.000000" stroke="none" 
	d="
M196.476532,139.617828 
	C197.766281,139.069061 198.791443,138.722900 200.177444,138.254883 
	C200.395004,141.050278 191.494186,142.445068 199.736557,145.729965 
	C198.638153,146.456940 197.794113,147.015564 196.609421,147.799652 
	C197.860886,148.866196 199.025177,149.858459 200.189468,150.850708 
	C199.954330,151.197205 199.719193,151.543686 199.484055,151.890167 
	C197.937851,150.850739 195.914276,150.135406 194.943390,148.705368 
	C192.830490,145.593338 193.444595,142.451324 196.476532,139.617828 
z"/>
<path fill="#8A3030" opacity="1.000000" stroke="none" 
	d="
M223.657791,146.700226 
	C222.086472,148.552765 222.086472,148.552765 225.090714,151.093979 
	C221.194794,151.138428 218.999634,149.372757 218.834137,145.725388 
	C218.643661,141.528229 220.556732,138.988647 226.279694,138.309982 
	C223.466202,140.151382 221.691971,141.312576 219.917755,142.473770 
	C220.347992,142.887329 220.778229,143.300873 221.208466,143.714417 
	C222.116287,144.665512 223.024109,145.616608 223.657791,146.700226 
z"/>
<path fill="#812E2E" opacity="1.000000" stroke="none" 
	d="
M95.939255,151.432434 
	C92.682449,152.385849 91.201714,151.302261 91.251740,148.177765 
	C91.300735,145.116806 91.262405,142.054459 91.833878,138.956177 
	C94.518257,142.744110 91.276917,148.372437 95.939255,151.432434 
z"/>
<path fill="#461D1D" opacity="1.000000" stroke="none" 
	d="
M98.487503,121.202522 
	C104.350868,121.115356 109.884811,121.115356 115.418747,121.115356 
	C115.423515,121.560654 115.428291,122.005959 115.433067,122.451256 
	C109.567741,122.451256 103.702415,122.452515 97.837151,122.434334 
	C97.775024,122.434143 97.627296,122.139366 97.668129,122.050072 
	C97.792252,121.778679 97.989372,121.540688 98.487503,121.202522 
z"/>
<path fill="#9C6868" opacity="1.000000" stroke="none" 
	d="
M145.278717,111.547745 
	C142.462433,111.836517 139.868866,111.836517 137.275299,111.836517 
	C137.304779,111.288643 137.334259,110.740768 137.363739,110.192894 
	C140.104324,109.424446 142.873779,107.497978 145.278717,111.547745 
z"/>
<path fill="#461D1D" opacity="1.000000" stroke="none" 
	d="
M131.425995,122.981766 
	C128.538315,122.985657 126.044487,122.985657 123.550652,122.985657 
	C123.563744,122.488647 123.576828,121.991631 123.589920,121.494621 
	C127.164452,121.494621 130.738983,121.494621 134.313522,121.494621 
	C134.379684,121.721420 134.445831,121.948212 134.511993,122.175011 
	C133.614609,122.442627 132.717224,122.710251 131.425995,122.981766 
z"/>
<path fill="#8A3030" opacity="1.000000" stroke="none" 
	d="
M132.359619,147.754562 
	C132.340500,147.909271 132.325546,148.236740 132.157883,148.435104 
	C131.875946,148.768616 131.496933,149.020065 130.352509,149.987900 
	C131.479385,148.758911 131.887253,148.314087 132.359619,147.754562 
z"/>
<path fill="#2C2121" opacity="1.000000" stroke="none" 
	d="
M171.328552,104.885612 
	C172.805313,106.028542 173.936127,107.085587 176.031769,109.044540 
	C171.317352,109.044540 167.937347,109.044540 164.171799,109.044540 
	C165.342163,105.341820 167.693436,104.323517 171.328552,104.885612 
z"/>
<path fill="#171212" opacity="1.000000" stroke="none" 
	d="
M193.874100,114.616730 
	C188.726807,117.748253 184.540512,116.266235 184.087189,111.409393 
	C183.750641,107.803680 185.259293,105.141678 189.146988,104.836708 
	C193.036514,104.531601 194.947449,106.820580 195.026245,110.544281 
	C195.052597,111.789948 194.431381,113.049309 193.874100,114.616730 
z"/>
<path fill="#130F0F" opacity="1.000000" stroke="none" 
	d="
M105.284988,141.183777 
	C108.867683,139.245895 111.808853,140.011917 112.617317,143.478363 
	C113.028236,145.240295 111.618546,148.406494 110.049507,149.425995 
	C107.560043,151.043549 104.635864,149.734146 103.810379,146.755081 
	C103.380013,145.201950 104.541359,143.207748 105.284988,141.183777 
z"/>
<path fill="#130F0F" opacity="1.000000" stroke="none" 
	d="
M141.541168,141.875458 
	C143.122452,141.406326 144.929474,140.703079 145.780533,141.319565 
	C146.571960,141.892853 146.782318,144.022202 146.389160,145.172882 
	C146.178711,145.788788 143.677734,146.399399 143.061996,145.919586 
	C142.108536,145.176590 141.883621,143.498672 141.541168,141.875458 
z"/>
</svg>